<mxfile host="Electron" modified="2023-10-11T02:27:51.864Z" agent="Mozilla/5.0 (Windows NT 10.0; Win64; x64) AppleWebKit/537.36 (KHTML, like Gecko) draw.io/22.0.2 Chrome/114.0.5735.289 Electron/25.8.4 Safari/537.36" etag="2DiuCnNROHQDICkDMUpp" version="22.0.2" type="device">
  <diagram name="PÃ¡gina-1" id="HlRWXg1bFJp1Xod3IB3_">
    <mxGraphModel dx="864" dy="516" grid="1" gridSize="10" guides="1" tooltips="1" connect="1" arrows="1" fold="1" page="1" pageScale="1" pageWidth="827" pageHeight="1169" math="0" shadow="0">
      <root>
        <mxCell id="0" />
        <mxCell id="1" parent="0" />
        <mxCell id="mv2MNBe9qTm98jDRmfba-1" value="&lt;p style=&quot;margin:0px;margin-top:4px;text-align:center;&quot;&gt;&lt;i&gt;&amp;lt;&amp;lt;Interface&amp;gt;&amp;gt;&lt;/i&gt;&lt;br&gt;&lt;b&gt;FormatoSalida&lt;/b&gt;&lt;/p&gt;&lt;hr size=&quot;1&quot;&gt;&lt;p style=&quot;margin:0px;margin-left:4px;&quot;&gt;&lt;br&gt;&lt;/p&gt;&lt;hr size=&quot;1&quot;&gt;&lt;p style=&quot;margin:0px;margin-left:4px;&quot;&gt;+ formatear(): String&lt;br&gt;&lt;br&gt;&lt;/p&gt;" style="verticalAlign=top;align=left;overflow=fill;fontSize=12;fontFamily=Helvetica;html=1;whiteSpace=wrap;" parent="1" vertex="1">
          <mxGeometry x="749" y="100" width="170" height="100" as="geometry" />
        </mxCell>
        <mxCell id="mv2MNBe9qTm98jDRmfba-2" value="FormatoCSV" style="swimlane;fontStyle=0;childLayout=stackLayout;horizontal=1;startSize=26;fillColor=none;horizontalStack=0;resizeParent=1;resizeParentMax=0;resizeLast=0;collapsible=1;marginBottom=0;whiteSpace=wrap;html=1;" parent="1" vertex="1">
          <mxGeometry x="609" y="303.5" width="140" height="52" as="geometry" />
        </mxCell>
        <mxCell id="mv2MNBe9qTm98jDRmfba-3" value="+ formatear(): String" style="text;strokeColor=none;fillColor=none;align=left;verticalAlign=top;spacingLeft=4;spacingRight=4;overflow=hidden;rotatable=0;points=[[0,0.5],[1,0.5]];portConstraint=eastwest;whiteSpace=wrap;html=1;" parent="mv2MNBe9qTm98jDRmfba-2" vertex="1">
          <mxGeometry y="26" width="140" height="26" as="geometry" />
        </mxCell>
        <mxCell id="mv2MNBe9qTm98jDRmfba-6" value="FormatoHTML" style="swimlane;fontStyle=0;childLayout=stackLayout;horizontal=1;startSize=26;fillColor=none;horizontalStack=0;resizeParent=1;resizeParentMax=0;resizeLast=0;collapsible=1;marginBottom=0;whiteSpace=wrap;html=1;" parent="1" vertex="1">
          <mxGeometry x="921" y="303.5" width="140" height="52" as="geometry" />
        </mxCell>
        <mxCell id="mv2MNBe9qTm98jDRmfba-7" value="+ formatear(): String" style="text;strokeColor=none;fillColor=none;align=left;verticalAlign=top;spacingLeft=4;spacingRight=4;overflow=hidden;rotatable=0;points=[[0,0.5],[1,0.5]];portConstraint=eastwest;whiteSpace=wrap;html=1;" parent="mv2MNBe9qTm98jDRmfba-6" vertex="1">
          <mxGeometry y="26" width="140" height="26" as="geometry" />
        </mxCell>
        <mxCell id="k9LaV1wvxI8ZOForSVoQ-1" value="FormatoPDF" style="swimlane;fontStyle=0;childLayout=stackLayout;horizontal=1;startSize=26;fillColor=none;horizontalStack=0;resizeParent=1;resizeParentMax=0;resizeLast=0;collapsible=1;marginBottom=0;whiteSpace=wrap;html=1;" parent="1" vertex="1">
          <mxGeometry x="764" y="303.5" width="140" height="52" as="geometry" />
        </mxCell>
        <mxCell id="k9LaV1wvxI8ZOForSVoQ-3" value="+ formatear(): String" style="text;strokeColor=none;fillColor=none;align=left;verticalAlign=top;spacingLeft=4;spacingRight=4;overflow=hidden;rotatable=0;points=[[0,0.5],[1,0.5]];portConstraint=eastwest;whiteSpace=wrap;html=1;" parent="k9LaV1wvxI8ZOForSVoQ-1" vertex="1">
          <mxGeometry y="26" width="140" height="26" as="geometry" />
        </mxCell>
        <mxCell id="k9LaV1wvxI8ZOForSVoQ-6" value="InformeUno" style="swimlane;fontStyle=1;align=center;verticalAlign=top;childLayout=stackLayout;horizontal=1;startSize=26;horizontalStack=0;resizeParent=1;resizeParentMax=0;resizeLast=0;collapsible=1;marginBottom=0;whiteSpace=wrap;html=1;" parent="1" vertex="1">
          <mxGeometry x="110" y="480" width="190" height="110" as="geometry" />
        </mxCell>
        <mxCell id="k9LaV1wvxI8ZOForSVoQ-16" value="Extends" style="endArrow=block;endSize=16;endFill=0;html=1;rounded=0;entryX=0.509;entryY=1.075;entryDx=0;entryDy=0;entryPerimeter=0;" parent="k9LaV1wvxI8ZOForSVoQ-6" target="k9LaV1wvxI8ZOForSVoQ-40" edge="1">
          <mxGeometry width="160" relative="1" as="geometry">
            <mxPoint x="80" as="sourcePoint" />
            <mxPoint x="255" y="-129" as="targetPoint" />
          </mxGeometry>
        </mxCell>
        <mxCell id="k9LaV1wvxI8ZOForSVoQ-8" value="" style="line;strokeWidth=1;fillColor=none;align=left;verticalAlign=middle;spacingTop=-1;spacingLeft=3;spacingRight=3;rotatable=0;labelPosition=right;points=[];portConstraint=eastwest;strokeColor=inherit;" parent="k9LaV1wvxI8ZOForSVoQ-6" vertex="1">
          <mxGeometry y="26" width="190" height="8" as="geometry" />
        </mxCell>
        <mxCell id="k9LaV1wvxI8ZOForSVoQ-9" value="&lt;p style=&quot;border-color: var(--border-color); margin: 0px 0px 0px 4px;&quot;&gt;+ obtenerDatosConsulta(): void&lt;/p&gt;&lt;p style=&quot;border-color: var(--border-color); margin: 0px 0px 0px 4px;&quot;&gt;+ aplicarCalculos(): void&lt;br style=&quot;border-color: var(--border-color);&quot;&gt;&lt;/p&gt;&lt;p style=&quot;border-color: var(--border-color); margin: 0px 0px 0px 4px;&quot;&gt;+ mostrarResultados(): void&lt;/p&gt;" style="text;strokeColor=none;fillColor=none;align=left;verticalAlign=top;spacingLeft=4;spacingRight=4;overflow=hidden;rotatable=0;points=[[0,0.5],[1,0.5]];portConstraint=eastwest;whiteSpace=wrap;html=1;" parent="k9LaV1wvxI8ZOForSVoQ-6" vertex="1">
          <mxGeometry y="34" width="190" height="76" as="geometry" />
        </mxCell>
        <mxCell id="k9LaV1wvxI8ZOForSVoQ-11" value="&lt;p style=&quot;margin:0px;margin-top:4px;text-align:center;&quot;&gt;&lt;i&gt;&amp;lt;&amp;lt;Abstract Class&amp;gt;&amp;gt;&lt;/i&gt;&lt;br&gt;&lt;b&gt;PasosInforme&lt;/b&gt;&lt;/p&gt;&lt;hr size=&quot;1&quot;&gt;&lt;p style=&quot;margin:0px;margin-left:4px;&quot;&gt;&lt;br&gt;&lt;/p&gt;&lt;hr size=&quot;1&quot;&gt;&lt;p style=&quot;margin:0px;margin-left:4px;&quot;&gt;+ generarInforme(): void&lt;br&gt;+ obtenerDatosConsulta(): void&lt;/p&gt;&lt;p style=&quot;margin:0px;margin-left:4px;&quot;&gt;+ consultarBD(): void&lt;/p&gt;&lt;p style=&quot;margin:0px;margin-left:4px;&quot;&gt;+ aplicarCalculos(): void&lt;br&gt;&lt;/p&gt;&lt;p style=&quot;margin:0px;margin-left:4px;&quot;&gt;+ mostrarResultados(): void&lt;/p&gt;" style="verticalAlign=top;align=left;overflow=fill;fontSize=12;fontFamily=Helvetica;html=1;whiteSpace=wrap;" parent="1" vertex="1">
          <mxGeometry x="273.5" y="50" width="246" height="150" as="geometry" />
        </mxCell>
        <mxCell id="k9LaV1wvxI8ZOForSVoQ-12" value="" style="endArrow=block;dashed=1;endFill=0;endSize=12;html=1;rounded=0;entryX=0.5;entryY=1;entryDx=0;entryDy=0;exitX=0.5;exitY=0;exitDx=0;exitDy=0;" parent="1" source="mv2MNBe9qTm98jDRmfba-2" target="mv2MNBe9qTm98jDRmfba-1" edge="1">
          <mxGeometry width="160" relative="1" as="geometry">
            <mxPoint x="269" y="323.5" as="sourcePoint" />
            <mxPoint x="429" y="323.5" as="targetPoint" />
          </mxGeometry>
        </mxCell>
        <mxCell id="k9LaV1wvxI8ZOForSVoQ-13" value="" style="endArrow=block;dashed=1;endFill=0;endSize=12;html=1;rounded=0;entryX=0.5;entryY=1;entryDx=0;entryDy=0;exitX=0.5;exitY=0;exitDx=0;exitDy=0;" parent="1" source="k9LaV1wvxI8ZOForSVoQ-1" target="mv2MNBe9qTm98jDRmfba-1" edge="1">
          <mxGeometry width="160" relative="1" as="geometry">
            <mxPoint x="689" y="313.5" as="sourcePoint" />
            <mxPoint x="844" y="233.5" as="targetPoint" />
          </mxGeometry>
        </mxCell>
        <mxCell id="k9LaV1wvxI8ZOForSVoQ-14" value="" style="endArrow=block;dashed=1;endFill=0;endSize=12;html=1;rounded=0;entryX=0.5;entryY=1;entryDx=0;entryDy=0;exitX=0.5;exitY=0;exitDx=0;exitDy=0;" parent="1" source="mv2MNBe9qTm98jDRmfba-6" target="mv2MNBe9qTm98jDRmfba-1" edge="1">
          <mxGeometry width="160" relative="1" as="geometry">
            <mxPoint x="689" y="313.5" as="sourcePoint" />
            <mxPoint x="844" y="233.5" as="targetPoint" />
          </mxGeometry>
        </mxCell>
        <mxCell id="k9LaV1wvxI8ZOForSVoQ-17" value="InformeDos" style="swimlane;fontStyle=1;align=center;verticalAlign=top;childLayout=stackLayout;horizontal=1;startSize=26;horizontalStack=0;resizeParent=1;resizeParentMax=0;resizeLast=0;collapsible=1;marginBottom=0;whiteSpace=wrap;html=1;" parent="1" vertex="1">
          <mxGeometry x="320" y="480" width="190" height="110" as="geometry" />
        </mxCell>
        <mxCell id="k9LaV1wvxI8ZOForSVoQ-18" value="Extends" style="endArrow=block;endSize=16;endFill=0;html=1;rounded=0;entryX=0.512;entryY=1;entryDx=0;entryDy=0;entryPerimeter=0;" parent="k9LaV1wvxI8ZOForSVoQ-17" target="k9LaV1wvxI8ZOForSVoQ-40" edge="1">
          <mxGeometry width="160" relative="1" as="geometry">
            <mxPoint x="80" as="sourcePoint" />
            <mxPoint x="80" y="-120" as="targetPoint" />
          </mxGeometry>
        </mxCell>
        <mxCell id="k9LaV1wvxI8ZOForSVoQ-20" value="" style="line;strokeWidth=1;fillColor=none;align=left;verticalAlign=middle;spacingTop=-1;spacingLeft=3;spacingRight=3;rotatable=0;labelPosition=right;points=[];portConstraint=eastwest;strokeColor=inherit;" parent="k9LaV1wvxI8ZOForSVoQ-17" vertex="1">
          <mxGeometry y="26" width="190" height="8" as="geometry" />
        </mxCell>
        <mxCell id="k9LaV1wvxI8ZOForSVoQ-21" value="&lt;p style=&quot;border-color: var(--border-color); margin: 0px 0px 0px 4px;&quot;&gt;+ obtenerDatosConsulta(): void&lt;/p&gt;&lt;p style=&quot;border-color: var(--border-color); margin: 0px 0px 0px 4px;&quot;&gt;+ consultarBD(): void&lt;/p&gt;&lt;p style=&quot;border-color: var(--border-color); margin: 0px 0px 0px 4px;&quot;&gt;+ mostrarResultados(): void&lt;/p&gt;" style="text;strokeColor=none;fillColor=none;align=left;verticalAlign=top;spacingLeft=4;spacingRight=4;overflow=hidden;rotatable=0;points=[[0,0.5],[1,0.5]];portConstraint=eastwest;whiteSpace=wrap;html=1;" parent="k9LaV1wvxI8ZOForSVoQ-17" vertex="1">
          <mxGeometry y="34" width="190" height="76" as="geometry" />
        </mxCell>
        <mxCell id="k9LaV1wvxI8ZOForSVoQ-22" value="InformeTres" style="swimlane;fontStyle=1;align=center;verticalAlign=top;childLayout=stackLayout;horizontal=1;startSize=26;horizontalStack=0;resizeParent=1;resizeParentMax=0;resizeLast=0;collapsible=1;marginBottom=0;whiteSpace=wrap;html=1;" parent="1" vertex="1">
          <mxGeometry x="530" y="480" width="190" height="110" as="geometry" />
        </mxCell>
        <mxCell id="k9LaV1wvxI8ZOForSVoQ-23" value="Extends" style="endArrow=block;endSize=16;endFill=0;html=1;rounded=0;entryX=0.531;entryY=1.075;entryDx=0;entryDy=0;entryPerimeter=0;" parent="k9LaV1wvxI8ZOForSVoQ-22" target="k9LaV1wvxI8ZOForSVoQ-40" edge="1">
          <mxGeometry width="160" relative="1" as="geometry">
            <mxPoint x="80" as="sourcePoint" />
            <mxPoint x="23" y="-120" as="targetPoint" />
          </mxGeometry>
        </mxCell>
        <mxCell id="k9LaV1wvxI8ZOForSVoQ-25" value="" style="line;strokeWidth=1;fillColor=none;align=left;verticalAlign=middle;spacingTop=-1;spacingLeft=3;spacingRight=3;rotatable=0;labelPosition=right;points=[];portConstraint=eastwest;strokeColor=inherit;" parent="k9LaV1wvxI8ZOForSVoQ-22" vertex="1">
          <mxGeometry y="26" width="190" height="8" as="geometry" />
        </mxCell>
        <mxCell id="k9LaV1wvxI8ZOForSVoQ-26" value="&lt;p style=&quot;border-color: var(--border-color); margin: 0px 0px 0px 4px;&quot;&gt;+ obtenerDatosConsulta(): void&lt;/p&gt;&lt;p style=&quot;border-color: var(--border-color); margin: 0px 0px 0px 4px;&quot;&gt;+ consultarBD(): void&lt;/p&gt;&lt;p style=&quot;border-color: var(--border-color); margin: 0px 0px 0px 4px;&quot;&gt;+ aplicarCalculos(): void&lt;br style=&quot;border-color: var(--border-color);&quot;&gt;&lt;/p&gt;&lt;p style=&quot;border-color: var(--border-color); margin: 0px 0px 0px 4px;&quot;&gt;+ mostrarResultados(): void&lt;/p&gt;" style="text;strokeColor=none;fillColor=none;align=left;verticalAlign=top;spacingLeft=4;spacingRight=4;overflow=hidden;rotatable=0;points=[[0,0.5],[1,0.5]];portConstraint=eastwest;whiteSpace=wrap;html=1;" parent="k9LaV1wvxI8ZOForSVoQ-22" vertex="1">
          <mxGeometry y="34" width="190" height="76" as="geometry" />
        </mxCell>
        <mxCell id="k9LaV1wvxI8ZOForSVoQ-37" value="&lt;i style=&quot;border-color: var(--border-color); font-weight: 400;&quot;&gt;&amp;lt;&amp;lt;Abstract Class&amp;gt;&amp;gt;&lt;/i&gt;&lt;br&gt;Informe" style="swimlane;fontStyle=1;align=center;verticalAlign=top;childLayout=stackLayout;horizontal=1;startSize=40;horizontalStack=0;resizeParent=1;resizeParentMax=0;resizeLast=0;collapsible=1;marginBottom=0;whiteSpace=wrap;html=1;" parent="1" vertex="1">
          <mxGeometry x="263" y="250" width="267" height="114" as="geometry">
            <mxRectangle x="243" y="250" width="150" height="40" as="alternateBounds" />
          </mxGeometry>
        </mxCell>
        <mxCell id="k9LaV1wvxI8ZOForSVoQ-38" value="- formato: IFormato" style="text;strokeColor=none;fillColor=none;align=left;verticalAlign=top;spacingLeft=4;spacingRight=4;overflow=hidden;rotatable=0;points=[[0,0.5],[1,0.5]];portConstraint=eastwest;whiteSpace=wrap;html=1;" parent="k9LaV1wvxI8ZOForSVoQ-37" vertex="1">
          <mxGeometry y="40" width="267" height="26" as="geometry" />
        </mxCell>
        <mxCell id="k9LaV1wvxI8ZOForSVoQ-39" value="" style="line;strokeWidth=1;fillColor=none;align=left;verticalAlign=middle;spacingTop=-1;spacingLeft=3;spacingRight=3;rotatable=0;labelPosition=right;points=[];portConstraint=eastwest;strokeColor=inherit;" parent="k9LaV1wvxI8ZOForSVoQ-37" vertex="1">
          <mxGeometry y="66" width="267" height="8" as="geometry" />
        </mxCell>
        <mxCell id="k9LaV1wvxI8ZOForSVoQ-40" value="+ seleccionarFormato(IFormato): void&lt;br&gt;+ formatearResultado(): String" style="text;strokeColor=none;fillColor=none;align=left;verticalAlign=top;spacingLeft=4;spacingRight=4;overflow=hidden;rotatable=0;points=[[0,0.5],[1,0.5]];portConstraint=eastwest;whiteSpace=wrap;html=1;" parent="k9LaV1wvxI8ZOForSVoQ-37" vertex="1">
          <mxGeometry y="74" width="267" height="40" as="geometry" />
        </mxCell>
        <mxCell id="k9LaV1wvxI8ZOForSVoQ-41" value="Extends" style="endArrow=block;endSize=16;endFill=0;html=1;rounded=0;entryX=0.5;entryY=1;entryDx=0;entryDy=0;exitX=0.5;exitY=0;exitDx=0;exitDy=0;" parent="1" source="k9LaV1wvxI8ZOForSVoQ-37" target="k9LaV1wvxI8ZOForSVoQ-11" edge="1">
          <mxGeometry width="160" relative="1" as="geometry">
            <mxPoint x="210" y="452.5" as="sourcePoint" />
            <mxPoint x="170" y="280" as="targetPoint" />
          </mxGeometry>
        </mxCell>
        <mxCell id="x5BnpajWyQIPQm1gkQc_-1" value="1" style="endArrow=open;html=1;endSize=12;startArrow=diamondThin;startSize=14;startFill=0;edgeStyle=orthogonalEdgeStyle;align=left;verticalAlign=bottom;rounded=0;entryX=0;entryY=0.5;entryDx=0;entryDy=0;" parent="1" target="mv2MNBe9qTm98jDRmfba-1" edge="1">
          <mxGeometry x="-1" y="3" relative="1" as="geometry">
            <mxPoint x="530" y="300" as="sourcePoint" />
            <mxPoint x="610" y="300" as="targetPoint" />
            <Array as="points">
              <mxPoint x="580" y="300" />
              <mxPoint x="580" y="150" />
            </Array>
          </mxGeometry>
        </mxCell>
      </root>
    </mxGraphModel>
  </diagram>
</mxfile>
